custom-analysis
version=1
nRows=4
nColumns=98
inDegrees=no

This file contains tibia displacement and acting force.

Units are S.I. units (seconds, meters, Newtons, ...)
Angles are in degrees.

endheader
time	APT	SIT	knee_angle	aACL_R_force	pACL_R_force	aPCL_R_force	pPCL_R_force	aMCL_R_force	mMCL_R_force	pMCL_R_force	aLCL_R_force	mLCL_R_force	pLCL_R_force	aPCL_L_force	pPCL_L_force	aMCL_L_force	aLCL_L_force	aACL_R_length	pACL_R_length	aPCL_R_length	pPCL_R_length	aMCL_R_length	mMCL_R_length	pMCL_R_length	aLCL_R_length	mLCL_R_length	pLCL_R_length	aPCL_L_length	pPCL_L_length	aMCL_L_length	aLCL_L_length	aACL_R_strain	pACL_R_strain	aPCL_R_strain	pPCL_R_strain	aMCL_R_strain	mMCL_R_strain	pMCL_R_strain	aLCL_R_strain	mLCL_R_strain	pLCL_R_strain	aPCL_L_strain	pPCL_L_strain	aMCL_L_strain	aLCL_L_strain	femur_lat_meniscii_r.femur_lat_r.force.X	femur_lat_meniscii_r.femur_lat_r.force.Y	femur_lat_meniscii_r.femur_lat_r.force.Z	femur_lat_meniscii_r.femur_lat_r.torque.X	femur_lat_meniscii_r.femur_lat_r.torque.Y	femur_lat_meniscii_r.femur_lat_r.torque.Z	femur_lat_meniscii_r.meniscus_lat_r.force.X	femur_lat_meniscii_r.meniscus_lat_r.force.Y	femur_lat_meniscii_r.meniscus_lat_r.force.Z	femur_lat_meniscii_r.meniscus_lat_r.torque.X	femur_lat_meniscii_r.meniscus_lat_r.torque.Y	femur_lat_meniscii_r.meniscus_lat_r.torque.Z	femur_med_meniscii_r.femur_med_r.force.X	femur_med_meniscii_r.femur_med_r.force.Y	femur_med_meniscii_r.femur_med_r.force.Z	femur_med_meniscii_r.femur_med_r.torque.X	femur_med_meniscii_r.femur_med_r.torque.Y	femur_med_meniscii_r.femur_med_r.torque.Z	femur_med_meniscii_r.meniscus_med_r.force.X	femur_med_meniscii_r.meniscus_med_r.force.Y	femur_med_meniscii_r.meniscus_med_r.force.Z	femur_med_meniscii_r.meniscus_med_r.torque.X	femur_med_meniscii_r.meniscus_med_r.torque.Y	femur_med_meniscii_r.meniscus_med_r.torque.Z	femur_med_tibia_r.tibia_upper_r.force.X	femur_med_tibia_r.tibia_upper_r.force.Y	femur_med_tibia_r.tibia_upper_r.force.Z	femur_med_tibia_r.tibia_upper_r.torque.X	femur_med_tibia_r.tibia_upper_r.torque.Y	femur_med_tibia_r.tibia_upper_r.torque.Z	femur_med_tibia_r.femur_med_r.force.X	femur_med_tibia_r.femur_med_r.force.Y	femur_med_tibia_r.femur_med_r.force.Z	femur_med_tibia_r.femur_med_r.torque.X	femur_med_tibia_r.femur_med_r.torque.Y	femur_med_tibia_r.femur_med_r.torque.Z	femur_lat_tibia_r.tibia_upper_r.force.X	femur_lat_tibia_r.tibia_upper_r.force.Y	femur_lat_tibia_r.tibia_upper_r.force.Z	femur_lat_tibia_r.tibia_upper_r.torque.X	femur_lat_tibia_r.tibia_upper_r.torque.Y	femur_lat_tibia_r.tibia_upper_r.torque.Z	femur_lat_tibia_r.femur_lat_r.force.X	femur_lat_tibia_r.femur_lat_r.force.Y	femur_lat_tibia_r.femur_lat_r.force.Z	femur_lat_tibia_r.femur_lat_r.torque.X	femur_lat_tibia_r.femur_lat_r.torque.Y	femur_lat_tibia_r.femur_lat_r.torque.Z	femur_lat_meniscii_force_r	femur_med_meniscii_force_r	femur_lat_tibia_force_r	femur_med_tibia_force_r
      0.16296251	      0.01280222	      0.01690431	     55.96096219	     -1.18851579	      0.00000000	    559.71465369	    365.06584952	      0.00000000	      0.00000000	      0.00000000	      0.00000000	      0.00000000	      0.00000000	      0.00000000	      0.00000000	      0.00000001	      0.00000000	      0.03136023	      0.02407000	      0.03484346	      0.03236225	      0.05942755	      0.05916783	      0.05630800	      0.05271386	      0.04802719	      0.04316090	      0.01525851	      0.01651186	      0.06550154	      0.04489616	      0.01144092	     -0.03945536	      0.12053782	      0.08279118	     -0.00998634	     -0.01046387	     -0.04120695	     -0.05829772	     -0.14722323	     -0.17541699	      0.00000079	     -0.32847694	      0.00000060	     -0.00000086	    111.57330742	    203.57183204	     24.30496430	    -14.67346891	      2.71397330	     43.64224342	   -111.57330742	   -203.57183204	    -24.30496430	      5.58988437	     -3.37068340	      3.55688982	     26.89867037	     25.64316786	     13.39759257	     -4.81453460	     -0.61038823	     10.79086297	    -26.89867037	    -25.64316786	    -13.39759257	     -0.32025682	      0.29941793	      0.11358308	   -723.40911574	   -689.42452809	    218.77951089	    -15.96553609	     16.41270425	     -1.01454471	    723.40911574	    689.42452809	   -218.77951089	    101.44958707	    -13.04910389	    294.27276646	      0.00000000	      0.00000000	      0.00000000	      0.00000000	      0.00000000	      0.00000000	      0.00000000	      0.00000000	      0.00000000	      0.00000000	      0.00000000	      0.00000000	    233.41127868	     39.50450622	      0.00000000	   1022.98162401
      0.16329454	      0.01282501	      0.01696724	     56.13920842	     -1.14659771	      0.00000000	    563.18422591	    366.81815859	      0.00000000	      0.00000000	      0.00000000	      0.00000000	      0.00000000	      0.00000000	      0.00000000	      0.00000000	      0.00000001	      0.00000000	      0.03135841	      0.02406946	      0.03486336	      0.03237377	      0.05944416	      0.05917087	      0.05630189	      0.05270385	      0.04800919	      0.04313806	      0.01525851	      0.01651186	      0.06550154	      0.04489616	      0.01138214	     -0.03947704	      0.12117782	      0.08317678	     -0.00970969	     -0.01041306	     -0.04131091	     -0.05847642	     -0.14754291	     -0.17585329	      0.00000079	     -0.32847694	      0.00000060	     -0.00000086	    111.47253992	    203.80805238	     24.99082439	    -14.96475336	      2.71736722	     43.58622508	   -111.47253992	   -203.80805238	    -24.99082439	      5.61615350	     -3.38971848	      3.59680308	     26.98864762	     25.40998326	     13.22100122	     -4.74741607	     -0.61185734	     10.82536855	    -26.98864762	    -25.40998326	    -13.22100122	     -0.32010276	      0.30342745	      0.11197847	   -727.08799928	   -688.52485951	    219.87234480	    -15.95581329	     16.51035707	     -1.00631537	    727.08799928	    688.52485951	   -219.87234480	    101.87339047	    -13.11881068	    295.74462522	      0.00000000	      0.00000000	      0.00000000	      0.00000000	      0.00000000	      0.00000000	      0.00000000	      0.00000000	      0.00000000	      0.00000000	      0.00000000	      0.00000000	    233.64158593	     39.35542177	      0.00000000	   1025.21572796
      0.16402016	      0.01287435	      0.01710492	     56.52888450	     -1.04891937	      0.00000000	    570.62954190	    370.40503629	      0.00000000	      0.00000000	      0.00000000	      0.00000000	      0.00000000	      0.00000000	      0.00000000	      0.00000000	      0.00000001	      0.00000000	      0.03135464	      0.02406859	      0.03490660	      0.03239884	      0.05948050	      0.05917771	      0.05628899	      0.05268161	      0.04796958	      0.04308806	      0.01525851	      0.01651186	      0.06550154	      0.04489616	      0.01126057	     -0.03951174	      0.12256826	      0.08401553	     -0.00910426	     -0.01029856	     -0.04153063	     -0.05887385	     -0.14824622	     -0.17680869	      0.00000079	     -0.32847694	      0.00000060	     -0.00000086	    112.39090748	    204.14578616	     25.77865597	    -15.31333141	      2.74313027	     43.93626528	   -112.39090748	   -204.14578616	    -25.77865597	      5.65973472	     -3.43712522	      3.64777626	     27.05474772	     24.73517150	     12.69574982	     -4.55242276	     -0.61046491	     10.84636127	    -27.05474772	    -24.73517150	    -12.69574982	     -0.31446116	      0.31070198	      0.10903769	   -734.49059396	   -684.56264093	    219.41605343	    -15.82373018	     16.62849799	     -1.02887752	    734.49059396	    684.56264093	   -219.41605343	    101.58782075	    -13.23298141	    298.71612784	      0.00000000	      0.00000000	      0.00000000	      0.00000000	      0.00000000	      0.00000000	      0.00000000	      0.00000000	      0.00000000	      0.00000000	      0.00000000	      0.00000000	    234.46056639	     38.79394472	      0.00000000	   1027.73821884
      0.16422984	      0.01288843	      0.01714478	     56.64150772	     -1.02971655	      0.00000000	    572.73714682	    371.36584405	      0.00000000	      0.00000000	      0.00000000	      0.00000000	      0.00000000	      0.00000000	      0.00000000	      0.00000000	      0.00000001	      0.00000000	      0.03135358	      0.02406841	      0.03491901	      0.03240604	      0.05949097	      0.05917971	      0.05628534	      0.05267504	      0.04795803	      0.04307354	      0.01525851	      0.01651186	      0.06550154	      0.04489616	      0.01122642	     -0.03951894	      0.12296733	      0.08425633	     -0.00892983	     -0.01026523	     -0.04159285	     -0.05899120	     -0.14845139	     -0.17708605	      0.00000079	     -0.32847694	      0.00000060	     -0.00000086	    112.60781222	    204.00057391	     25.53109374	    -15.21107866	      2.74479884	     44.01999743	   -112.60781222	   -204.00057391	    -25.53109374	      5.65254179	     -3.43529464	      3.65627826	     27.20529811	     24.63080422	     12.53712748	     -4.49068158	     -0.61346722	     10.90561914	    -27.20529811	    -24.63080422	    -12.53712748	     -0.31542778	      0.31617742	      0.10759939	   -736.39695383	   -683.41737737	    219.52448139	    -15.79196036	     16.66394665	     -1.02977236	    736.39695383	    683.41737737	   -219.52448139	    101.60461230	    -13.26217671	    299.47942028	      0.00000000	      0.00000000	      0.00000000	      0.00000000	      0.00000000	      0.00000000	      0.00000000	      0.00000000	      0.00000000	      0.00000000	      0.00000000	      0.00000000	    234.41115646	     38.78123679	      0.00000000	   1028.36315727
